<mxfile host="app.diagrams.net" agent="Mozilla/5.0 (Windows NT 10.0; Win64; x64) AppleWebKit/537.36 (KHTML, like Gecko) Chrome/131.0.0.0 Safari/537.36" version="25.0.3">
  <diagram name="Page-1" id="HBRtVVp-wP3zWwQEZq6d">
    <mxGraphModel dx="1313" dy="754" grid="1" gridSize="10" guides="1" tooltips="1" connect="1" arrows="1" fold="1" page="1" pageScale="1" pageWidth="850" pageHeight="1100" math="0" shadow="0">
      <root>
        <mxCell id="0" />
        <mxCell id="1" parent="0" />
        <mxCell id="s2XogopxtBXhC6ZRFWiz-1" value="Halaman Kuota Dosen Pembimbing" style="shape=umlLifeline;perimeter=lifelinePerimeter;whiteSpace=wrap;html=1;container=0;dropTarget=0;collapsible=0;recursiveResize=0;outlineConnect=0;portConstraint=eastwest;newEdgeStyle={&quot;edgeStyle&quot;:&quot;elbowEdgeStyle&quot;,&quot;elbow&quot;:&quot;vertical&quot;,&quot;curved&quot;:0,&quot;rounded&quot;:0};" vertex="1" parent="1">
          <mxGeometry x="207" y="170" width="115" height="590" as="geometry" />
        </mxCell>
        <mxCell id="s2XogopxtBXhC6ZRFWiz-6" value="JumlahAlokasiMhs()" style="html=1;verticalAlign=bottom;endArrow=block;edgeStyle=elbowEdgeStyle;elbow=vertical;curved=0;rounded=0;" edge="1" parent="1" source="s2XogopxtBXhC6ZRFWiz-2" target="s2XogopxtBXhC6ZRFWiz-45">
          <mxGeometry relative="1" as="geometry">
            <mxPoint x="370" y="260" as="sourcePoint" />
            <Array as="points">
              <mxPoint x="355" y="250" />
            </Array>
          </mxGeometry>
        </mxCell>
        <mxCell id="s2XogopxtBXhC6ZRFWiz-7" value="Koordinator" style="shape=umlActor;verticalLabelPosition=bottom;verticalAlign=top;html=1;outlineConnect=0;" vertex="1" parent="1">
          <mxGeometry x="105" y="210" width="30" height="60" as="geometry" />
        </mxCell>
        <mxCell id="s2XogopxtBXhC6ZRFWiz-8" value="" style="group" vertex="1" connectable="0" parent="1">
          <mxGeometry x="545" y="150" width="70" height="490" as="geometry" />
        </mxCell>
        <mxCell id="s2XogopxtBXhC6ZRFWiz-9" value="Control Object" style="ellipse;shape=umlControl;whiteSpace=wrap;html=1;" vertex="1" parent="s2XogopxtBXhC6ZRFWiz-8">
          <mxGeometry width="70" height="80" as="geometry" />
        </mxCell>
        <mxCell id="s2XogopxtBXhC6ZRFWiz-10" value="" style="group" vertex="1" connectable="0" parent="s2XogopxtBXhC6ZRFWiz-8">
          <mxGeometry x="30" y="80" width="10" height="410" as="geometry" />
        </mxCell>
        <mxCell id="s2XogopxtBXhC6ZRFWiz-11" value="" style="group" vertex="1" connectable="0" parent="s2XogopxtBXhC6ZRFWiz-10">
          <mxGeometry y="40" width="10" height="370" as="geometry" />
        </mxCell>
        <mxCell id="s2XogopxtBXhC6ZRFWiz-12" value="" style="html=1;points=[[0,0,0,0,5],[0,1,0,0,-5],[1,0,0,0,5],[1,1,0,0,-5]];perimeter=orthogonalPerimeter;outlineConnect=0;targetShapes=umlLifeline;portConstraint=eastwest;newEdgeStyle={&quot;curved&quot;:0,&quot;rounded&quot;:0};" vertex="1" parent="s2XogopxtBXhC6ZRFWiz-11">
          <mxGeometry y="10" width="10" height="360" as="geometry" />
        </mxCell>
        <mxCell id="s2XogopxtBXhC6ZRFWiz-14" value="" style="endArrow=none;dashed=1;html=1;rounded=0;exitX=0.45;exitY=0;exitDx=0;exitDy=0;exitPerimeter=0;" edge="1" parent="s2XogopxtBXhC6ZRFWiz-10" source="s2XogopxtBXhC6ZRFWiz-12">
          <mxGeometry width="50" height="50" relative="1" as="geometry">
            <mxPoint x="5" y="40" as="sourcePoint" />
            <mxPoint x="4.5" as="targetPoint" />
          </mxGeometry>
        </mxCell>
        <mxCell id="s2XogopxtBXhC6ZRFWiz-15" value="UpdateData()" style="html=1;verticalAlign=bottom;endArrow=block;edgeStyle=elbowEdgeStyle;elbow=vertical;curved=0;rounded=0;" edge="1" parent="s2XogopxtBXhC6ZRFWiz-8">
          <mxGeometry relative="1" as="geometry">
            <mxPoint x="155" y="343" as="sourcePoint" />
            <Array as="points">
              <mxPoint x="125" y="343" />
            </Array>
            <mxPoint x="50" y="343" as="targetPoint" />
          </mxGeometry>
        </mxCell>
        <mxCell id="s2XogopxtBXhC6ZRFWiz-16" value="" style="html=1;points=[[0,0,0,0,5],[0,1,0,0,-5],[1,0,0,0,5],[1,1,0,0,-5]];perimeter=orthogonalPerimeter;outlineConnect=0;targetShapes=umlLifeline;portConstraint=eastwest;newEdgeStyle={&quot;curved&quot;:0,&quot;rounded&quot;:0};" vertex="1" parent="s2XogopxtBXhC6ZRFWiz-8">
          <mxGeometry x="40" y="343" width="10" height="30" as="geometry" />
        </mxCell>
        <mxCell id="s2XogopxtBXhC6ZRFWiz-17" value="UpdateAlokasi()" style="html=1;verticalAlign=bottom;endArrow=block;edgeStyle=elbowEdgeStyle;elbow=vertical;curved=0;rounded=0;" edge="1" parent="1">
          <mxGeometry relative="1" as="geometry">
            <mxPoint x="450" y="280" as="sourcePoint" />
            <Array as="points">
              <mxPoint x="523" y="280" />
            </Array>
            <mxPoint x="575" y="280" as="targetPoint" />
          </mxGeometry>
        </mxCell>
        <mxCell id="s2XogopxtBXhC6ZRFWiz-18" value="Validasi()" style="html=1;verticalAlign=bottom;endArrow=block;edgeStyle=elbowEdgeStyle;elbow=vertical;curved=0;rounded=0;" edge="1" parent="1" source="s2XogopxtBXhC6ZRFWiz-12" target="s2XogopxtBXhC6ZRFWiz-32">
          <mxGeometry relative="1" as="geometry">
            <mxPoint x="615" y="340" as="sourcePoint" />
            <Array as="points">
              <mxPoint x="668" y="340" />
            </Array>
            <mxPoint x="715" y="340" as="targetPoint" />
          </mxGeometry>
        </mxCell>
        <mxCell id="s2XogopxtBXhC6ZRFWiz-19" value="Database" style="ellipse;shape=umlEntity;whiteSpace=wrap;html=1;" vertex="1" parent="1">
          <mxGeometry x="665" y="150" width="80" height="80" as="geometry" />
        </mxCell>
        <mxCell id="s2XogopxtBXhC6ZRFWiz-20" value="" style="endArrow=none;dashed=1;html=1;rounded=0;" edge="1" parent="1" source="s2XogopxtBXhC6ZRFWiz-32">
          <mxGeometry width="50" height="50" relative="1" as="geometry">
            <mxPoint x="705" y="320" as="sourcePoint" />
            <mxPoint x="704.5" y="230" as="targetPoint" />
          </mxGeometry>
        </mxCell>
        <mxCell id="s2XogopxtBXhC6ZRFWiz-21" value="UpdateData()" style="html=1;verticalAlign=bottom;endArrow=block;edgeStyle=elbowEdgeStyle;elbow=horizontal;curved=0;rounded=0;" edge="1" parent="1">
          <mxGeometry relative="1" as="geometry">
            <mxPoint x="575" y="565" as="sourcePoint" />
            <Array as="points">
              <mxPoint x="535" y="565" />
            </Array>
            <mxPoint x="460" y="565" as="targetPoint" />
          </mxGeometry>
        </mxCell>
        <mxCell id="s2XogopxtBXhC6ZRFWiz-31" value="" style="endArrow=none;dashed=1;html=1;rounded=0;" edge="1" parent="1" target="s2XogopxtBXhC6ZRFWiz-32">
          <mxGeometry width="50" height="50" relative="1" as="geometry">
            <mxPoint x="705" y="760" as="sourcePoint" />
            <mxPoint x="704.5" y="480" as="targetPoint" />
          </mxGeometry>
        </mxCell>
        <mxCell id="s2XogopxtBXhC6ZRFWiz-32" value="" style="html=1;points=[[0,0,0,0,5],[0,1,0,0,-5],[1,0,0,0,5],[1,1,0,0,-5]];perimeter=orthogonalPerimeter;outlineConnect=0;targetShapes=umlLifeline;portConstraint=eastwest;newEdgeStyle={&quot;curved&quot;:0,&quot;rounded&quot;:0};" vertex="1" parent="1">
          <mxGeometry x="700" y="340" width="10" height="200" as="geometry" />
        </mxCell>
        <mxCell id="s2XogopxtBXhC6ZRFWiz-44" value="Button" style="shape=umlBoundary;whiteSpace=wrap;html=1;" vertex="1" parent="1">
          <mxGeometry x="395" y="160" width="85" height="70" as="geometry" />
        </mxCell>
        <mxCell id="s2XogopxtBXhC6ZRFWiz-45" value="" style="html=1;points=[];perimeter=orthogonalPerimeter;outlineConnect=0;targetShapes=umlLifeline;portConstraint=eastwest;newEdgeStyle={&quot;edgeStyle&quot;:&quot;elbowEdgeStyle&quot;,&quot;elbow&quot;:&quot;vertical&quot;,&quot;curved&quot;:0,&quot;rounded&quot;:0};" vertex="1" parent="1">
          <mxGeometry x="440" y="250" width="10" height="430" as="geometry" />
        </mxCell>
        <mxCell id="s2XogopxtBXhC6ZRFWiz-46" value="" style="html=1;points=[[0,0,0,0,5],[0,1,0,0,-5],[1,0,0,0,5],[1,1,0,0,-5]];perimeter=orthogonalPerimeter;outlineConnect=0;targetShapes=umlLifeline;portConstraint=eastwest;newEdgeStyle={&quot;curved&quot;:0,&quot;rounded&quot;:0};" vertex="1" parent="1">
          <mxGeometry x="450" y="565" width="10" height="30" as="geometry" />
        </mxCell>
        <mxCell id="s2XogopxtBXhC6ZRFWiz-47" value="" style="endArrow=none;dashed=1;html=1;rounded=0;" edge="1" parent="1" target="s2XogopxtBXhC6ZRFWiz-45">
          <mxGeometry width="50" height="50" relative="1" as="geometry">
            <mxPoint x="445" y="760" as="sourcePoint" />
            <mxPoint x="444.58000000000004" y="450" as="targetPoint" />
          </mxGeometry>
        </mxCell>
        <mxCell id="s2XogopxtBXhC6ZRFWiz-48" value="" style="endArrow=none;dashed=1;html=1;rounded=0;entryX=0.575;entryY=1.016;entryDx=0;entryDy=0;entryPerimeter=0;" edge="1" parent="1" source="s2XogopxtBXhC6ZRFWiz-45" target="s2XogopxtBXhC6ZRFWiz-44">
          <mxGeometry width="50" height="50" relative="1" as="geometry">
            <mxPoint x="444.58" y="240" as="sourcePoint" />
            <mxPoint x="445" y="240" as="targetPoint" />
          </mxGeometry>
        </mxCell>
        <mxCell id="s2XogopxtBXhC6ZRFWiz-13" value="" style="endArrow=none;dashed=1;html=1;rounded=0;" edge="1" parent="1" source="s2XogopxtBXhC6ZRFWiz-12">
          <mxGeometry width="50" height="50" relative="1" as="geometry">
            <mxPoint x="590" y="680" as="sourcePoint" />
            <mxPoint x="580" y="760" as="targetPoint" />
          </mxGeometry>
        </mxCell>
        <mxCell id="s2XogopxtBXhC6ZRFWiz-71" value="return" style="endArrow=classic;html=1;rounded=0;dashed=1;" edge="1" parent="1">
          <mxGeometry width="50" height="50" relative="1" as="geometry">
            <mxPoint x="440" y="639.0900000000001" as="sourcePoint" />
            <mxPoint x="270" y="639.0900000000001" as="targetPoint" />
          </mxGeometry>
        </mxCell>
        <mxCell id="s2XogopxtBXhC6ZRFWiz-2" value="" style="html=1;points=[];perimeter=orthogonalPerimeter;outlineConnect=0;targetShapes=umlLifeline;portConstraint=eastwest;newEdgeStyle={&quot;edgeStyle&quot;:&quot;elbowEdgeStyle&quot;,&quot;elbow&quot;:&quot;vertical&quot;,&quot;curved&quot;:0,&quot;rounded&quot;:0};" vertex="1" parent="1">
          <mxGeometry x="260" y="240" width="10" height="490" as="geometry" />
        </mxCell>
        <mxCell id="s2XogopxtBXhC6ZRFWiz-3" value="KuotaDosbing()" style="html=1;verticalAlign=bottom;startArrow=oval;endArrow=block;startSize=8;edgeStyle=elbowEdgeStyle;elbow=vertical;curved=0;rounded=0;" edge="1" parent="1" target="s2XogopxtBXhC6ZRFWiz-2">
          <mxGeometry relative="1" as="geometry">
            <mxPoint x="145" y="240" as="sourcePoint" />
          </mxGeometry>
        </mxCell>
        <mxCell id="s2XogopxtBXhC6ZRFWiz-4" value="UpdateData()" style="html=1;verticalAlign=bottom;endArrow=block;edgeStyle=elbowEdgeStyle;elbow=horizontal;curved=0;rounded=0;" edge="1" parent="1">
          <mxGeometry relative="1" as="geometry">
            <mxPoint x="440" y="558" as="sourcePoint" />
            <Array as="points">
              <mxPoint x="355" y="558" />
            </Array>
            <mxPoint x="280" y="558" as="targetPoint" />
          </mxGeometry>
        </mxCell>
        <mxCell id="s2XogopxtBXhC6ZRFWiz-5" value="" style="html=1;points=[[0,0,0,0,5],[0,1,0,0,-5],[1,0,0,0,5],[1,1,0,0,-5]];perimeter=orthogonalPerimeter;outlineConnect=0;targetShapes=umlLifeline;portConstraint=eastwest;newEdgeStyle={&quot;curved&quot;:0,&quot;rounded&quot;:0};" vertex="1" parent="1">
          <mxGeometry x="270" y="558" width="10" height="30" as="geometry" />
        </mxCell>
        <mxCell id="s2XogopxtBXhC6ZRFWiz-72" value="JumlahLulusan()" style="html=1;verticalAlign=bottom;endArrow=block;edgeStyle=elbowEdgeStyle;elbow=vertical;curved=0;rounded=0;" edge="1" parent="1">
          <mxGeometry relative="1" as="geometry">
            <mxPoint x="270" y="320" as="sourcePoint" />
            <Array as="points">
              <mxPoint x="355" y="320" />
            </Array>
            <mxPoint x="440" y="320" as="targetPoint" />
          </mxGeometry>
        </mxCell>
        <mxCell id="s2XogopxtBXhC6ZRFWiz-74" value="JumlahLulusanMhsSaatini()" style="html=1;verticalAlign=bottom;endArrow=block;edgeStyle=elbowEdgeStyle;elbow=vertical;curved=0;rounded=0;" edge="1" parent="1">
          <mxGeometry relative="1" as="geometry">
            <mxPoint x="270" y="394.5" as="sourcePoint" />
            <Array as="points">
              <mxPoint x="355" y="394.5" />
            </Array>
            <mxPoint x="440" y="394.5" as="targetPoint" />
          </mxGeometry>
        </mxCell>
        <mxCell id="s2XogopxtBXhC6ZRFWiz-75" value="EditKuotaDosbing()" style="html=1;verticalAlign=bottom;endArrow=block;edgeStyle=elbowEdgeStyle;elbow=vertical;curved=0;rounded=0;" edge="1" parent="1">
          <mxGeometry relative="1" as="geometry">
            <mxPoint x="270" y="464.5" as="sourcePoint" />
            <Array as="points">
              <mxPoint x="355" y="464.5" />
            </Array>
            <mxPoint x="440" y="464.5" as="targetPoint" />
          </mxGeometry>
        </mxCell>
        <mxCell id="s2XogopxtBXhC6ZRFWiz-76" value="UpdateLulusan()" style="html=1;verticalAlign=bottom;endArrow=block;edgeStyle=elbowEdgeStyle;elbow=vertical;curved=0;rounded=0;" edge="1" parent="1">
          <mxGeometry relative="1" as="geometry">
            <mxPoint x="450" y="340" as="sourcePoint" />
            <Array as="points">
              <mxPoint x="523" y="340" />
            </Array>
            <mxPoint x="575" y="340" as="targetPoint" />
          </mxGeometry>
        </mxCell>
        <mxCell id="s2XogopxtBXhC6ZRFWiz-77" value="UpdateLulusanSaatIni()" style="html=1;verticalAlign=bottom;endArrow=block;edgeStyle=elbowEdgeStyle;elbow=vertical;curved=0;rounded=0;" edge="1" parent="1">
          <mxGeometry relative="1" as="geometry">
            <mxPoint x="450" y="410" as="sourcePoint" />
            <Array as="points">
              <mxPoint x="523" y="410" />
            </Array>
            <mxPoint x="575" y="410" as="targetPoint" />
          </mxGeometry>
        </mxCell>
        <mxCell id="s2XogopxtBXhC6ZRFWiz-78" value="UpdateKuotaDosbing()" style="html=1;verticalAlign=bottom;endArrow=block;edgeStyle=elbowEdgeStyle;elbow=vertical;curved=0;rounded=0;" edge="1" parent="1">
          <mxGeometry relative="1" as="geometry">
            <mxPoint x="450" y="480" as="sourcePoint" />
            <Array as="points">
              <mxPoint x="523" y="480" />
            </Array>
            <mxPoint x="575" y="480" as="targetPoint" />
          </mxGeometry>
        </mxCell>
      </root>
    </mxGraphModel>
  </diagram>
</mxfile>
